<?xml version="1.0" encoding="UTF-8"?>
<svg version="1.1" xmlns="http://www.w3.org/2000/svg" width="512" height="512">
<path d="M0 0 C2.11330649 -0.0054257 4.22660919 -0.01255087 6.33990479 -0.02124023 C12.05890488 -0.03942302 17.77761524 -0.03242679 23.49662018 -0.01972389 C29.49238341 -0.00957012 35.48812247 -0.01899617 41.48388672 -0.02526855 C51.5511519 -0.03253802 61.61829955 -0.02297558 71.68554688 -0.00390625 C83.31110236 0.01786104 94.9363772 0.01080919 106.56192589 -0.01121187 C116.55797916 -0.02938577 126.55394813 -0.03191444 136.55001259 -0.0214572 C142.5138369 -0.01523324 148.47752946 -0.01435648 154.44134521 -0.02760315 C160.04918248 -0.03918991 165.65665923 -0.03108403 171.2644577 -0.00802612 C173.31788282 -0.00275416 175.37133847 -0.00422678 177.42475128 -0.01307678 C191.71674867 -0.06897715 202.08753698 0.58164616 212.921875 10.86914062 C217.06794627 15.69909993 221.1953125 21.9928747 221.1953125 28.51757812 C222.23042969 28.59492188 223.26554687 28.67226563 224.33203125 28.75195312 C230.77783388 29.57127496 236.86761134 31.71563676 243.0078125 33.76757812 C243.66093414 33.98488586 244.31405579 34.2021936 244.98696899 34.42608643 C288.30690092 48.97796759 329.01196626 76.26008405 357.1953125 112.51757812 C357.98292969 113.49984375 358.77054687 114.48210937 359.58203125 115.49414062 C376.93429465 137.29939689 390.35605932 162.09717846 399.1953125 188.51757812 C399.47455566 189.35095703 399.75379883 190.18433594 400.04150391 191.04296875 C403.0366948 200.14665668 405.52285373 209.31524021 407.4453125 218.70507812 C407.59645508 219.43927979 407.74759766 220.17348145 407.90332031 220.92993164 C410.85709741 236.3305787 411.5688081 251.56045985 411.5078125 267.20507812 C411.50507828 268.66182953 411.50507828 268.66182953 411.50228882 270.14801025 C411.45802678 284.15009842 411.0440302 297.76622088 408.1953125 311.51757812 C408.03434082 312.36658691 407.87336914 313.2155957 407.70751953 314.09033203 C401.45750624 346.86537772 388.80368749 379.3621944 369.1953125 406.51757812 C368.70289063 407.20625977 368.21046875 407.89494141 367.703125 408.60449219 C361.64936184 417.02060582 355.26559091 424.9266203 348.1953125 432.51757812 C347.00291128 433.88832996 345.81517367 435.26315676 344.6328125 436.64257812 C338.61578973 443.51327461 332.16362782 449.52572813 325.03515625 455.23632812 C323.19627407 456.71350446 321.37452427 458.21237352 319.57421875 459.73632812 C306.88924114 470.44222305 292.86834296 478.83777052 278.1953125 486.51757812 C277.09823975 487.09572266 277.09823975 487.09572266 275.97900391 487.68554688 C255.37483401 498.39660792 232.95833496 505.20171943 210.1953125 509.51757812 C209.4120459 509.67983887 208.6287793 509.84209961 207.82177734 510.00927734 C180.70903194 515.50671411 148.24956099 515.10514142 121.1953125 509.51757812 C119.72070557 509.21956299 119.72070557 509.21956299 118.21630859 508.91552734 C62.6794051 497.36516651 10.34494189 467.57641154 -24.8046875 422.51757812 C-25.59359375 421.53402344 -26.3825 420.55046875 -27.1953125 419.53710938 C-44.54384631 397.73036989 -57.96567224 372.93726663 -66.8046875 346.51757812 C-67.22355225 345.26750977 -67.22355225 345.26750977 -67.65087891 343.9921875 C-70.6460698 334.88849957 -73.13222873 325.71991604 -75.0546875 316.33007812 C-75.28140137 315.22877563 -75.28140137 315.22877563 -75.51269531 314.10522461 C-78.46236308 298.72600313 -79.17970017 283.51556287 -79.1171875 267.89257812 C-79.11503235 266.92202484 -79.1128772 265.95147156 -79.11065674 264.95150757 C-79.0596209 250.62326915 -78.71227188 236.59572031 -75.8046875 222.51757812 C-75.60601074 221.53450684 -75.40733398 220.55143555 -75.20263672 219.53857422 C-67.51500948 182.57461972 -67.51500948 182.57461972 -58.56713867 169.57006836 C-43.88210827 147.02729968 -47.19444198 119.84297189 -47.59258062 94.02855873 C-47.76586661 82.65994455 -47.79113956 71.2900001 -47.83530045 59.92030525 C-47.85890896 56.21187684 -47.90843048 52.50457195 -47.96359253 48.79649353 C-47.98621372 46.51919784 -48.00861524 44.24189996 -48.03076172 41.96459961 C-48.05262039 40.94893417 -48.07447906 39.93326874 -48.09700012 38.88682556 C-48.17248348 27.30046435 -44.84821422 18.09397494 -36.98828125 9.54101562 C-26.1556184 -0.74454304 -14.04899001 -0.06054975 0 0 Z " fill="#1CC9DD" transform="translate(89.8046875,-0.517578125)"/>
<path d="M0 0 C0.85179134 -0.00438225 1.70358268 -0.00876451 2.58118588 -0.01327956 C5.44052449 -0.02665287 8.29983228 -0.03284322 11.15919495 -0.03897095 C13.20763284 -0.04687328 15.25606935 -0.05514231 17.30450439 -0.06375122 C24.03803683 -0.08996339 30.77157544 -0.10528136 37.50514221 -0.11953735 C39.82528754 -0.12489799 42.14543283 -0.1302755 44.46557808 -0.13566971 C54.12065181 -0.15730017 63.77572387 -0.17603471 73.4308157 -0.1872921 C87.25366601 -0.20351603 101.07623455 -0.23665439 114.89897865 -0.29369295 C124.62487202 -0.33245261 134.35069023 -0.35193213 144.07665879 -0.35721266 C149.881459 -0.36085876 155.68595862 -0.37280098 161.49067497 -0.4053154 C166.9580947 -0.43550065 172.42503361 -0.44167048 177.892519 -0.42993164 C179.89148887 -0.42971176 181.89048173 -0.43794546 183.88937378 -0.45558548 C198.43739917 -0.57690681 210.74755061 0.3081793 221.76295471 11.0406189 C228.04021251 18.13038188 230.84201201 25.09955893 230.98654175 34.63249207 C231.00009537 35.36474697 231.013649 36.09700188 231.02761334 36.85144633 C231.07022284 39.29441602 231.09894961 41.7373395 231.12745667 44.18051147 C231.15477786 45.93705284 231.18279037 47.69358357 231.21144104 49.45010376 C231.30121702 55.21188447 231.3695364 60.97382827 231.43482971 66.7359314 C231.44628643 67.71876405 231.45774314 68.70159671 231.46954703 69.71421218 C231.57740393 78.99746478 231.67783435 88.28076648 231.75939655 97.56429005 C231.86380743 109.40240809 232.00538125 121.23874199 232.19892436 133.07574826 C232.33222465 141.4180934 232.42238884 149.76025494 232.48132962 158.10345286 C232.51758593 163.07634415 232.57208174 168.04738422 232.67301369 173.01941872 C232.76724321 177.70751129 232.80737395 182.39315899 232.80841827 187.08216858 C232.81776317 188.78939893 232.84563161 190.49666069 232.89484978 192.20320702 C233.27697007 206.06840971 228.94914987 214.25094649 220.63404846 225.15390015 C219.50216785 226.75374774 218.37301271 228.35554556 217.25123596 229.9624939 C216.34429002 231.1774742 215.43055134 232.38742318 214.50904846 233.59140015 C213.76521912 234.57366577 213.76521912 234.57366577 213.00636292 235.57577515 C208.82677641 241.03284995 204.31783062 246.12518829 199.63404846 251.15390015 C198.44164724 252.52465198 197.25390963 253.89947878 196.07154846 255.27890015 C184.14165783 268.96073276 184.14165783 268.96073276 178.29430294 269.41116905 C176.88010158 269.42480917 175.46576814 269.42731368 174.05151367 269.42132568 C173.271964 269.4258568 172.49241433 269.43038791 171.68924195 269.43505633 C169.06848949 269.44774952 166.44794355 269.44607677 163.8271637 269.44442749 C161.95134208 269.45040992 160.07552292 269.4572148 158.19970703 269.46478271 C153.09605711 269.48248506 147.99247422 269.48714005 142.88879657 269.48841429 C138.62724347 269.49031211 134.36570602 269.49766881 130.10415894 269.50475848 C120.04469675 269.52105827 109.98527038 269.52592621 99.92579651 269.52450562 C89.55746215 269.52330568 79.18933646 269.54437427 68.82105488 269.57599294 C59.91644324 269.60217805 51.01189962 269.61287188 42.1072498 269.6115948 C36.7905155 269.61108556 31.47396632 269.61674694 26.15727043 269.6379509 C21.15117175 269.65736926 16.14543397 269.65743306 11.13932228 269.64291763 C9.30681199 269.64083248 7.47427892 269.64551287 5.64180756 269.65763855 C-8.21102185 269.74332841 -17.82680284 268.41042143 -28.16673279 258.5249939 C-35.14314254 251.00335852 -37.6720509 243.47981743 -37.63337708 233.33743286 C-37.63790819 232.46139821 -37.6424393 231.58536356 -37.64710772 230.68278241 C-37.65974658 227.75350469 -37.65813167 224.82441302 -37.65647888 221.89511108 C-37.66246449 219.79224916 -37.66927011 217.68938943 -37.67683411 215.58653259 C-37.69449904 209.87770908 -37.69918973 204.16894552 -37.70046568 198.46009731 C-37.70188768 194.89168869 -37.70615823 191.32329529 -37.71146011 187.75489044 C-37.72996278 175.30080701 -37.73813052 162.84676639 -37.73655701 150.39266968 C-37.73535589 138.79220936 -37.75645184 127.1919352 -37.78804433 115.59152198 C-37.81421696 105.62528858 -37.82492387 95.65911594 -37.82364619 85.69284844 C-37.8231368 79.74347658 -37.82880717 73.79427012 -37.85000229 67.84493256 C-37.86940084 62.24702693 -37.86949784 56.64944419 -37.85496902 51.05152702 C-37.85288178 49.00131953 -37.85757673 46.95109174 -37.86968994 44.90091896 C-37.94864808 30.60706292 -37.30035676 20.25936833 -27.01048279 9.4234314 C-18.92551396 2.48492787 -10.38743747 0.00649077 0 0 Z " fill="#FC6930" transform="translate(238.36595153808594,180.84609985351563)"/>
<path d="M0 0 C0.33 0 0.66 0 1 0 C1.00142502 1.1635199 1.00285004 2.32703979 1.00431824 3.52581787 C1.02104044 14.52994581 1.06397327 25.53370641 1.13209057 36.53763962 C1.16627507 42.1939288 1.19145728 47.84995032 1.19555664 53.50634766 C1.19985787 58.97255642 1.22847179 64.43816225 1.27343178 69.90418243 C1.28634857 71.98196135 1.29073527 74.05981263 1.28615379 76.13762665 C1.26324342 89.69196645 1.39036938 102.10715386 11.34375 112.54296875 C20.67266015 120.74976942 30.65628316 122.44730322 42.77172852 122.43237305 C44.02149979 122.4425647 45.27127106 122.45275635 46.55891418 122.46325684 C49.95922505 122.48813977 53.35910508 122.5000877 56.75946927 122.50611091 C60.32294318 122.51553954 63.88629437 122.54174628 67.44969177 122.56611633 C74.18548449 122.60966224 80.92125322 122.63828209 87.65714353 122.66143972 C96.76782308 122.69363347 105.87835982 122.74908671 114.9889307 122.80318546 C129.32591114 122.88770989 143.66283642 122.94133233 158 123 C158 104.52 158 86.04 158 67 C158.33 67 158.66 67 159 67 C159.00146656 68.07306585 159.00293312 69.14613171 159.00444412 70.25171471 C159.04105799 96.37578063 159.10053246 122.49971853 159.18390274 148.62367821 C159.22369233 161.2570962 159.25608529 173.89045191 159.27099609 186.52392578 C159.28401295 197.53675342 159.3109787 208.54944401 159.35461307 219.56219447 C159.37722686 225.39202195 159.39291071 231.2216804 159.39188385 237.05155563 C159.39113721 242.54273389 159.40909023 248.03353849 159.44116783 253.52462006 C159.44966205 255.53609894 159.45142003 257.54761976 159.44580269 259.55910873 C159.41120986 273.85427893 160.21165023 283.97989991 170.484375 294.796875 C177.30078455 300.7665256 184.70485961 303.14635616 193.61186218 303.15821838 C194.39438396 303.16315636 195.17690573 303.16809434 195.98314029 303.17318195 C198.61335112 303.18857793 201.2435375 303.19692326 203.8737793 303.20532227 C205.75597347 303.21489914 207.63816548 303.22490911 209.52035522 303.23532104 C214.63776917 303.26239684 219.75519237 303.28339193 224.87263846 303.30332303 C230.21782864 303.32516609 235.56299023 303.35256299 240.90815735 303.37937927 C251.03346686 303.4293289 261.15879222 303.47425931 271.28413278 303.51740164 C282.80999952 303.56675461 294.33583757 303.62167993 305.86167657 303.67708123 C329.5744243 303.79093613 353.28719952 303.89776753 377 304 C374.65477573 306.9776258 372.49747009 309.63093568 369.48828125 311.9453125 C368.48958008 312.71584961 368.48958008 312.71584961 367.47070312 313.50195312 C366.75849609 314.03755859 366.04628906 314.57316406 365.3125 315.125 C364.55775391 315.69412109 363.80300781 316.26324219 363.02539062 316.84960938 C341.65875596 332.78133946 318.30609264 345.51874688 293 354 C292.17193848 354.27924316 291.34387695 354.55848633 290.49072266 354.84619141 C277.88747407 359.02432201 265.12239237 361.9872404 252 364 C250.86377197 364.17877686 249.72754395 364.35755371 248.55688477 364.54174805 C237.17813519 366.16171715 225.91841301 366.35823143 214.4375 366.3125 C213.46444916 366.31034485 212.49139832 366.3081897 211.48886108 366.30596924 C197.14214268 366.25497257 183.09634655 365.91134417 169 363 C167.52539307 362.70198486 167.52539307 362.70198486 166.02099609 362.39794922 C110.4840926 350.84758839 58.14962939 321.05883342 23 276 C22.21109375 275.01644531 21.4221875 274.03289062 20.609375 273.01953125 C3.26084119 251.21279176 -10.16098474 226.4196885 -19 200 C-19.41886475 198.74993164 -19.41886475 198.74993164 -19.84619141 197.47460938 C-22.8413823 188.37092144 -25.32754123 179.20233791 -27.25 169.8125 C-27.40114258 169.07829834 -27.55228516 168.34409668 -27.70800781 167.58764648 C-30.65767558 152.20842501 -31.37501267 136.99798474 -31.3125 121.375 C-31.31034485 120.40444672 -31.3081897 119.43389343 -31.30596924 118.43392944 C-31.2549334 104.10569102 -30.90758438 90.07814218 -28 76 C-27.80132324 75.01692871 -27.60264648 74.03385742 -27.39794922 73.02099609 C-15.41786118 15.41786118 -15.41786118 15.41786118 0 0 Z " fill="#D3F1F5" transform="translate(42,146)"/>
<path d="M0 0 C7.76218317 0.9702729 14.45339338 2.79072303 21.8125 5.25 C22.46562164 5.46730774 23.11874329 5.68461548 23.79165649 5.9085083 C67.11158842 20.46038946 107.81665376 47.74250592 136 84 C136.78761719 84.98226562 137.57523438 85.96453125 138.38671875 86.9765625 C155.73898215 108.78181877 169.16074682 133.57960034 178 160 C178.27924316 160.83337891 178.55848633 161.66675781 178.84619141 162.52539062 C181.8413823 171.62907856 184.32754123 180.79766209 186.25 190.1875 C186.40114258 190.92170166 186.55228516 191.65590332 186.70800781 192.41235352 C189.66178491 207.81300058 190.3734956 223.04288172 190.3125 238.6875 C190.31067719 239.6586676 190.30885437 240.62983521 190.30697632 241.63043213 C190.26271428 255.6325203 189.8487177 269.24864275 187 283 C186.83902832 283.84900879 186.67805664 284.69801758 186.51220703 285.57275391 C181.67600057 310.93380203 173.18988687 336.66314209 160 359 C159.34 359.33 158.68 359.66 158 360 C157.99853344 359.08062432 157.99706688 358.16124865 157.99555588 357.2140131 C157.95848138 334.82893488 157.899458 312.44400799 157.81609726 290.05905247 C157.77631196 279.23378315 157.74391684 268.40858647 157.72900391 257.58325195 C157.7159848 248.14632746 157.68901339 238.70956284 157.64538693 229.27272838 C157.62277808 224.27738398 157.60708898 219.28223673 157.60811615 214.28683662 C157.60886309 209.58111791 157.59089833 204.87583491 157.55883217 200.17022896 C157.55034169 198.44698067 157.54857744 196.72368347 157.55419731 195.00042343 C157.65278932 182.4729485 157.65278932 182.4729485 153 171 C152.54238281 170.20207031 152.08476562 169.40414062 151.61328125 168.58203125 C145.85802294 160.75280598 138.39422831 156.25925066 129 154 C124.70993172 153.57181207 120.44544242 153.5624027 116.13647461 153.56762695 C114.85671784 153.55735316 113.57696108 153.54707937 112.25842381 153.53649426 C108.82170523 153.50919618 105.38515449 153.49943967 101.94834137 153.49352264 C98.71390327 153.48523673 95.4796017 153.46085609 92.24523926 153.43786621 C82.80941078 153.38004708 73.37343955 153.34780978 63.9375 153.3125 C42.838125 153.209375 21.73875 153.10625 0 153 C0 102.51 0 52.02 0 0 Z " fill="#D3F1F5" transform="translate(311,28)"/>
<path d="M0 0 C18.39358251 -0.07012243 36.78713026 -0.12300401 55.1808176 -0.15543652 C63.7215834 -0.17089664 72.26226607 -0.19196981 80.80297852 -0.22631836 C88.24821989 -0.2562469 95.69340105 -0.27558122 103.1387009 -0.28226548 C107.07989928 -0.2861719 111.02092544 -0.29533463 114.96206856 -0.31719017 C118.67452337 -0.33760999 122.38673562 -0.34382277 126.09924126 -0.33932304 C128.10537694 -0.34053697 130.11148643 -0.35665028 132.11755371 -0.3732605 C141.02035098 -0.3427772 147.36979904 0.55397128 154 7 C156.85821075 11.66477706 157.42560737 15.5785549 157.36076355 20.93466187 C157.36332682 21.71566336 157.3658901 22.49666486 157.36853105 23.30133307 C157.37345787 25.90862075 157.35699449 28.51532459 157.34057617 31.12255859 C157.33972966 32.99534084 157.34020551 34.86812409 157.34190369 36.74090576 C157.34276412 41.8189883 157.3251304 46.89685807 157.30418181 51.97489119 C157.28542318 57.28400054 157.28366521 62.59311482 157.28010559 67.9022522 C157.27078275 77.95315092 157.24616567 88.0039517 157.21605712 98.05480731 C157.18252061 109.49848759 157.16602897 120.94217257 157.15097082 132.38588977 C157.11961638 155.9239808 157.06685116 179.46198491 157 203 C155.56266525 202.5278688 154.12592552 202.05392593 152.68943787 201.57922363 C151.88928977 201.31549202 151.08914167 201.05176041 150.26474667 200.78003693 C112.45196654 187.75634415 76.44314905 159.33403681 52 128 C51.21109375 127.01644531 50.4221875 126.03289062 49.609375 125.01953125 C32.26084119 103.21279176 18.83901526 78.4196885 10 52 C9.72075684 51.16662109 9.44151367 50.33324219 9.15380859 49.47460938 C6.12546449 40.27015442 3.61586884 30.98362792 1.625 21.5 C1.45709961 20.72390381 1.28919922 19.94780762 1.11621094 19.14819336 C0.22748233 14.61865271 -0.0751595 10.31718923 -0.04150391 5.69726562 C-0.03551178 4.6272229 -0.02951965 3.55718018 -0.02334595 2.45471191 C-0.01564178 1.64465698 -0.00793762 0.83460205 0 0 Z " fill="#A6E7F0" transform="translate(13,294)"/>
<path d="M0 0 C1.87229279 0.01273453 1.87229279 0.01273453 3.78240967 0.02572632 C7.72565115 0.05901475 11.66676325 0.13425551 15.609375 0.2109375 C18.30072923 0.24449735 20.99214047 0.26885162 23.68359375 0.29296875 C30.24290037 0.35872582 36.8009855 0.45882799 43.359375 0.5859375 C40.95860296 2.1864522 38.66406416 3.46482924 36.109375 4.7734375 C26.7582726 10.01066206 21.77417961 17.18795102 18.80780888 27.50412369 C18.0481275 31.03087596 18.23005982 34.61818118 18.24584961 38.20996094 C18.24570358 39.07861282 18.24555756 39.94726471 18.2454071 40.84223938 C18.24610309 43.70995593 18.25388085 46.57760731 18.26171875 49.4453125 C18.26358404 51.4349972 18.26500742 53.42468235 18.26600647 55.41436768 C18.26982288 60.64879629 18.27964571 65.88319711 18.29071045 71.11761475 C18.30094338 76.45991642 18.30550813 81.80222259 18.31054688 87.14453125 C18.32126874 97.6250122 18.33833468 108.10547254 18.359375 118.5859375 C19.11863281 118.03164063 19.87789063 117.47734375 20.66015625 116.90625 C22.15095703 115.81957031 22.15095703 115.81957031 23.671875 114.7109375 C25.15107422 113.63199219 25.15107422 113.63199219 26.66015625 112.53125 C28.53460615 111.180344 30.43690493 109.86758421 32.359375 108.5859375 C31.9984375 107.82152344 31.6375 107.05710937 31.265625 106.26953125 C26.37981463 94.99145231 25.60965611 84.97688881 29.421875 73.2109375 C34.19595276 61.29591526 42.34242048 52.99862114 53.91015625 47.62109375 C62.64500304 43.92933235 71.04588259 44.38248742 80.359375 44.5859375 C77.70247494 46.35720421 75.7612104 47.19269067 72.796875 48.2109375 C61.78874765 52.57567604 53.97047435 60.77439023 49.04296875 71.43359375 C44.37221505 83.78586573 45.94381823 94.42098992 50.359375 106.5859375 C50.689375 107.5759375 51.019375 108.5659375 51.359375 109.5859375 C50.4415625 110.1428125 49.52375 110.6996875 48.578125 111.2734375 C33.8296294 120.37109145 22.75442515 131.47068938 17.9765625 148.78515625 C15.06452737 166.71813209 17.59070604 184.22844683 28.109375 199.3359375 C37.41634991 211.34882919 49.68401742 218.81227412 64.359375 222.5859375 C64.359375 222.9159375 64.359375 223.2459375 64.359375 223.5859375 C46.91381532 224.1769414 32.24663194 220.96524126 18.359375 209.5859375 C18.30092248 214.08588222 18.26562645 218.58572813 18.234375 223.0859375 C18.21761719 224.354375 18.20085937 225.6228125 18.18359375 226.9296875 C18.12198455 238.75865294 19.76778509 249.76214246 28.359375 258.5859375 C33.68203427 262.71758588 38.97006354 265.49489011 45.359375 267.5859375 C45.359375 267.9159375 45.359375 268.2459375 45.359375 268.5859375 C38.10032118 268.67912827 30.84139895 268.74994865 23.58186531 268.79318619 C20.20995898 268.81395126 16.83846562 268.84206139 13.46679688 268.88769531 C9.57931847 268.93650413 5.69241765 268.95897393 1.8046875 268.9765625 C0.60949493 268.99720764 -0.58569763 269.01785278 -1.81710815 269.03912354 C-13.41998772 269.04219739 -21.06714346 265.96319457 -29.44140625 257.95703125 C-36.417816 250.43539587 -38.94672436 242.91185479 -38.90805054 232.76947021 C-38.91258165 231.89343557 -38.91711276 231.01740092 -38.92178118 230.11481977 C-38.93442004 227.18554204 -38.93280513 224.25645037 -38.93115234 221.32714844 C-38.93713795 219.22428651 -38.94394357 217.12142679 -38.95150757 215.01856995 C-38.9691725 209.30974643 -38.97386319 203.60098287 -38.97513914 197.89213467 C-38.97656114 194.32372604 -38.98083169 190.75533264 -38.98613358 187.1869278 C-39.00463624 174.73284437 -39.01280398 162.27880375 -39.01123047 149.82470703 C-39.01002935 138.22424672 -39.0311253 126.62397255 -39.0627178 115.02355933 C-39.08889042 105.05732593 -39.09959733 95.09115329 -39.09831965 85.1248858 C-39.09781026 79.17551394 -39.10348063 73.22630747 -39.12467575 67.27696991 C-39.14407431 61.67906429 -39.1441713 56.08148155 -39.12964249 50.48356438 C-39.12755524 48.43335688 -39.13225019 46.38312909 -39.1443634 44.33295631 C-39.27352983 20.94985424 -39.27352983 20.94985424 -30.640625 11.3359375 C-29.650625 10.18351563 -29.650625 10.18351563 -28.640625 9.0078125 C-19.68907271 1.78129894 -11.32039973 -0.29586949 0 0 Z " fill="#FC5426" transform="translate(239.640625,181.4140625)"/>
<path d="M0 0 C0.90055618 0.00037766 1.80111237 0.00075531 2.72895813 0.00114441 C3.68747177 0.02695084 4.64598541 0.05275726 5.63354492 0.0793457 C6.62529221 0.08642044 7.61703949 0.09349518 8.63883972 0.1007843 C11.79800709 0.12871262 14.95538449 0.19144976 18.11401367 0.25512695 C20.25917032 0.28021177 22.40435482 0.30302462 24.54956055 0.32348633 C29.80081951 0.37853369 35.0510387 0.46214386 40.30151367 0.56762695 C38.80151367 3.56762695 38.80151367 3.56762695 37.30151367 6.56762695 C37.20974683 7.97411159 37.17957721 9.3848679 37.18125916 10.79434204 C37.17988449 11.68057755 37.17850983 12.56681305 37.17709351 13.47990417 C37.18068878 14.45454117 37.18428406 15.42917816 37.18798828 16.43334961 C37.18784225 17.45776657 37.18769623 18.48218353 37.18754578 19.53764343 C37.18824442 22.93568005 37.19603456 26.33366237 37.20385742 29.73168945 C37.20572177 32.08295665 37.2071456 34.43422422 37.20814514 36.78549194 C37.21196896 42.98332791 37.22179811 49.18114055 37.23284912 55.37896729 C37.24306614 61.69966313 37.24764339 68.02036273 37.25268555 74.34106445 C37.26342048 86.74992888 37.28049529 99.15877598 37.30151367 111.56762695 C39.60817902 105.46222101 41.91479313 99.3567957 44.22137451 93.25135803 C45.00318286 91.18195679 45.78500219 89.11255969 46.5668335 87.04316711 C54.22786879 66.76771258 54.22786879 66.76771258 61.87683105 46.48770142 C63.00216305 43.50777624 64.14570704 40.53585964 65.30151367 37.56762695 C65.71852539 36.49270996 66.13553711 35.41779297 66.56518555 34.31030273 C66.98864258 33.25182129 67.41209961 32.19333984 67.84838867 31.1027832 C68.22318359 30.15927002 68.59797852 29.21575684 68.98413086 28.24365234 C71.06505801 24.01662444 73.38226856 21.18045703 77.30151367 18.56762695 C79.45776367 18.3371582 79.45776367 18.3371582 81.80151367 18.38012695 C82.57495117 18.38657227 83.34838867 18.39301758 84.14526367 18.3996582 C86.30151367 18.56762695 86.30151367 18.56762695 89.30151367 19.56762695 C88.27385834 21.63536196 87.23509666 23.69502321 86.16763306 25.74255371 C82.93090088 32.02370475 80.32525457 38.40933699 77.88745117 45.03637695 C77.48017792 46.12899338 77.07290466 47.2216098 76.65328979 48.34733582 C75.77862952 50.69545874 74.90643628 53.04450185 74.03649902 55.39437866 C72.65166173 59.13475073 71.26061642 62.87277752 69.86694336 66.60986328 C69.63147293 67.24129022 69.3960025 67.87271715 69.15339661 68.52327824 C68.67497365 69.80611073 68.19651896 71.0889314 67.71803284 72.37174034 C66.99419007 74.31297784 66.2710245 76.25446656 65.54797363 78.19599915 C61.32018771 89.54393362 57.03175885 100.86840493 52.72067261 112.18493652 C51.55531293 115.24515016 50.39209009 118.30616783 49.22949219 121.36743164 C45.69561943 130.66941541 42.1515163 139.96718431 38.57662964 149.25349426 C36.96626639 153.44094998 35.36354922 157.63130812 33.76208496 161.82217407 C33.00443084 163.79898269 32.24319166 165.77442146 31.47814941 167.74838257 C30.42714963 170.46080099 29.38841687 173.1776224 28.35229492 175.89575195 C27.88509789 177.08739708 27.88509789 177.08739708 27.40846252 178.30311584 C27.12865036 179.04428146 26.8488382 179.78544708 26.56054688 180.54907227 C26.31585159 181.18435852 26.07115631 181.81964478 25.81904602 182.47418213 C25.06152285 185.1789909 25.06152285 185.1789909 25.30151367 190.56762695 C33.55151367 190.56762695 41.80151367 190.56762695 50.30151367 190.56762695 C52.857433 185.45578831 55.08878893 180.797447 57.06323242 175.51293945 C57.29935745 174.88531708 57.53548248 174.2576947 57.77876282 173.61105347 C58.5195972 171.63974651 59.25456528 169.66632089 59.98901367 167.69262695 C60.73532829 165.69796214 61.4828663 163.70376367 62.23139954 161.70993042 C62.90373873 159.91740326 63.57280784 158.12365057 64.24169922 156.32983398 C65.30151367 153.56762695 65.30151367 153.56762695 66.30151367 151.56762695 C86.76151367 151.56762695 107.22151367 151.56762695 128.30151367 151.56762695 C132.30151367 161.56762695 132.30151367 161.56762695 131.30151367 165.56762695 C130.03198242 167.2512207 130.03198242 167.2512207 128.48901367 169.00512695 C121.28453531 178.3815769 120.68335123 189.97617861 120.55151367 201.38012695 C120.52186523 202.65694336 120.4922168 203.93375977 120.46166992 205.24926758 C120.39186813 208.35544726 120.33873132 211.46091564 120.30151367 214.56762695 C103.94227518 214.66104635 87.58312313 214.73159427 71.2236824 214.77487564 C63.62779069 214.79550563 56.03206467 214.82363435 48.4362793 214.86938477 C41.81619175 214.90923944 35.19622418 214.9350566 28.57602 214.94398093 C25.07023565 214.9491981 21.56479457 214.96146872 18.05912018 214.99054718 C14.14668824 215.02273668 10.23459287 215.02358723 6.32202148 215.02172852 C5.15820953 215.03610962 3.99439758 215.05049072 2.7953186 215.06530762 C1.72963654 215.05980896 0.66395447 215.0543103 -0.434021 215.04864502 C-1.35950115 215.05233219 -2.28498131 215.05601936 -3.23850632 215.05981827 C-6.64648287 214.37795238 -7.73207731 213.43596161 -9.69848633 210.56762695 C-10.09341557 207.69647737 -10.24337807 205.20826074 -10.21315002 202.33766174 C-10.22009555 201.50064364 -10.22704108 200.66362553 -10.23419708 199.80124325 C-10.25251671 196.99206295 -10.2421891 194.18372243 -10.23193359 191.37451172 C-10.23898957 189.3623491 -10.24773323 187.3501918 -10.25804138 185.33804321 C-10.28058137 179.86902386 -10.27758481 174.40029326 -10.26871991 168.93124509 C-10.26361695 164.36843293 -10.27089698 159.80567537 -10.27819198 155.24286884 C-10.29520572 144.48022358 -10.29161035 133.71772006 -10.27490234 122.95507812 C-10.25797862 111.84527672 -10.27381586 100.73586815 -10.30612522 89.62610966 C-10.33280061 80.09309145 -10.34010268 70.56019568 -10.33161014 61.0271439 C-10.32667507 55.33106739 -10.32892805 49.63522732 -10.34939766 43.93918037 C-10.36772247 38.58335059 -10.361835 33.22808691 -10.33719826 27.87228775 C-10.33218024 25.90545498 -10.3357057 23.93857932 -10.34834671 21.97178078 C-10.36422838 19.28872427 -10.34937337 16.60754309 -10.32667542 13.92457581 C-10.33851114 13.14422409 -10.35034687 12.36387238 -10.36254126 11.55987364 C-10.29329604 7.53748362 -9.85426161 5.76176675 -7.30357742 2.58289719 C-4.51822012 0.42817496 -3.44991658 -0.04859037 0 0 Z " fill="#05B6D0" transform="translate(79.698486328125,26.432373046875)"/>
<path d="M0 0 C0.89460938 -0.01611328 1.78921875 -0.03222656 2.7109375 -0.04882812 C17.40557288 -0.05950737 26.55798911 7.01606984 36.625 17 C37.2967627 17.66612305 37.96852539 18.33224609 38.66064453 19.01855469 C43.49683347 23.9280004 43.49683347 23.9280004 44.625 27.3125 C44.00383301 27.31392502 43.38266602 27.31535004 42.74267578 27.31681824 C36.25297396 27.33656867 29.76420596 27.39095701 23.27490234 27.46508789 C20.85602528 27.48822498 18.43704809 27.50265347 16.01806641 27.50805664 C12.53224597 27.51737702 9.04799123 27.55843905 5.5625 27.60546875 C3.95109131 27.59956978 3.95109131 27.59956978 2.30712891 27.59355164 C-4.5178617 27.72492839 -9.09253716 28.87182665 -14.375 33.3125 C-17.84130599 37.10377218 -17.83224266 40.94377873 -17.65625 45.87890625 C-17.09394553 50.74440191 -15.50790761 53.40444508 -11.71923828 56.44116211 C-7.82502532 58.62024974 -5.42984382 58.84104229 -0.9921875 58.87890625 C-0.29666779 58.88510483 0.39885193 58.89130341 1.115448 58.89768982 C2.58281058 58.90476172 4.05025384 58.90165993 5.51757812 58.88891602 C7.72422622 58.87516066 9.92652913 58.90901351 12.1328125 58.94726562 C25.49554877 59.02094266 35.63669531 55.31405684 45.625 46.3125 C46.9620986 44.98294259 48.29590452 43.65005776 49.625 42.3125 C48.12793886 52.1780332 46.55972807 62.03134964 44.96557617 71.8815918 C44.55814693 74.40192789 44.15310572 76.92264137 43.74804688 79.44335938 C43.48712584 81.05731538 43.2260634 82.67124854 42.96484375 84.28515625 C42.84503647 85.03305923 42.72522919 85.78096222 42.60179138 86.55152893 C42.06651092 89.8430565 41.51834687 93.09697523 40.625 96.3125 C38.00075073 95.3493044 35.704086 94.36430056 33.35986328 92.82885742 C23.78349888 86.80151098 13.74225041 87.4352002 2.76123047 87.58520508 C-0.50035076 87.62500428 -3.75787902 87.60582414 -7.01953125 87.58007812 C-9.11980723 87.5876361 -11.22007432 87.59858841 -13.3203125 87.61328125 C-14.2809964 87.60629715 -15.2416803 87.59931305 -16.23147583 87.59211731 C-25.72035712 87.78764408 -33.68667788 91.62417788 -40.375 98.3125 C-46.92708496 107.10944972 -48.32252907 115.44590077 -47.375 126.3125 C-45.52159286 134.41421983 -41.00325716 141.14367585 -34.1328125 145.84765625 C-26.33930461 150.34794784 -19.68594861 151.621586 -10.7734375 151.61328125 C-9.22591293 151.61970894 -9.22591293 151.61970894 -7.64712524 151.62626648 C-5.46007009 151.632002 -3.27299586 151.63251578 -1.0859375 151.62817383 C2.19045645 151.62505665 5.46590793 151.64833275 8.7421875 151.67382812 C26.27023109 151.72907892 43.24070043 150.53899379 59.875 144.625 C61.37087646 144.1136853 61.37087646 144.1136853 62.89697266 143.59204102 C69.86960952 141.13517163 76.49926786 138.21830443 82.98144531 134.66333008 C84.50369207 133.83107174 86.06144645 133.06429082 87.625 132.3125 C88.285 132.6425 88.945 132.9725 89.625 133.3125 C84.75873271 142.67964932 79.0363513 149.89034498 71.625 157.3125 C70.96757812 157.98152344 70.31015625 158.65054688 69.6328125 159.33984375 C54.12161228 174.01889803 33.10718492 179.39930711 12.36328125 179.55078125 C11.29563034 179.558853 10.22797943 179.56692474 9.12797546 179.57524109 C6.87643017 179.58901518 4.62486458 179.59976689 2.37329102 179.60766602 C0.09165237 179.61917716 -2.18995954 179.63961507 -4.47143555 179.66918945 C-26.2209354 179.95054816 -42.69252229 177.30082682 -59.12890625 161.6796875 C-72.25598196 147.84489119 -75.91158646 132.09260908 -75.65234375 113.6015625 C-75.0988964 98.07750214 -67.18188525 85.94105381 -56.375 75.3125 C-51.66307917 71.17596224 -47.03854803 68.02678983 -41.375 65.3125 C-41.91640625 63.80623047 -41.91640625 63.80623047 -42.46875 62.26953125 C-47.05118741 49.00346466 -48.49466525 37.49054021 -42.375 24.3125 C-35.79874136 12.69166828 -26.71448198 5.61422045 -14.21484375 1.1953125 C-9.40948006 0.09051881 -4.91310165 -0.01754679 0 0 Z " fill="#FEFDFC" transform="translate(331.375,225.6875)"/>
<path d="M0 0 C5.17566879 2.18528238 8.08017027 6.02038709 10.41845703 11.05273438 C10.86044434 12.22126953 11.30243164 13.38980469 11.7578125 14.59375 C12.01436615 15.26461136 12.2709198 15.93547272 12.5352478 16.62666321 C13.40737748 18.91450848 14.26606842 21.20717009 15.125 23.5 C15.75511967 25.16133218 16.38600854 26.82237277 17.01757812 28.4831543 C18.90253651 33.44945128 20.77384216 38.42081401 22.64318848 43.39300537 C24.13735671 47.36515382 25.63426175 51.33626364 27.13183594 55.30712891 C27.68985066 56.78683441 28.24786456 58.26654023 28.80587769 59.74624634 C29.08805019 60.49448292 29.3702227 61.2427195 29.66094589 62.01362991 C33.41145548 71.95921425 37.16014697 81.90546777 40.89892578 91.85546875 C41.71831904 94.0353121 42.53782046 96.21511473 43.35742569 98.39487839 C43.88689173 99.80311236 44.41621824 101.2113988 44.94540024 102.61973953 C48.27544824 111.47940613 51.63158875 120.32763096 55.14807129 129.11543274 C57 133.78953039 57 133.78953039 57 136 C56.27296875 136.07476562 55.5459375 136.14953125 54.796875 136.2265625 C46.5673553 137.30273046 40.21178702 139.97126556 33 144 C32.34 144.33 31.68 144.66 31 145 C30.3291288 143.3767313 29.66342971 141.75132422 29 140.125 C28.62875 139.22007812 28.2575 138.31515625 27.875 137.3828125 C27 135 27 135 27 133 C6.54 133 -13.92 133 -35 133 C-35.99 136.3 -36.98 139.6 -38 143 C-39.57362018 147.49433538 -41.28896593 151.93134387 -43 156.375 C-43.65742188 158.11716797 -43.65742188 158.11716797 -44.328125 159.89453125 C-44.75609375 161.00957031 -45.1840625 162.12460938 -45.625 163.2734375 C-46.20121094 164.78043213 -46.20121094 164.78043213 -46.7890625 166.31787109 C-47.98454086 168.96575926 -48.94080854 170.94650188 -51 173 C-53.40429687 173.50170898 -53.40429687 173.50170898 -56.21875 173.49609375 C-57.23324219 173.49673828 -58.24773437 173.49738281 -59.29296875 173.49804688 C-60.35128906 173.47806641 -61.40960938 173.45808594 -62.5 173.4375 C-64.08748047 173.44813477 -64.08748047 173.44813477 -65.70703125 173.45898438 C-73.31330644 173.39616253 -73.31330644 173.39616253 -75.88867188 171.91040039 C-77.30487486 169.47591262 -77.08070503 167.78567286 -76.55200195 165.07061768 C-75.44638204 160.92332051 -73.90078856 156.95625344 -72.34375 152.9609375 C-71.97005783 151.98444244 -71.59636566 151.00794739 -71.21134949 150.00186157 C-69.98079889 146.79034416 -68.74029245 143.58276617 -67.5 140.375 C-66.63044398 138.10969047 -65.76172212 135.84406059 -64.89379883 133.578125 C-63.11744615 128.94140384 -61.33820259 124.30580802 -59.55712891 119.67089844 C-56.235277 111.01650623 -52.96147074 102.34420315 -49.69369507 93.66928101 C-48.68332213 90.98891675 -47.6707744 88.30938451 -46.6574707 85.63012695 C-43.24195904 76.59820133 -39.83414018 67.56348875 -36.44476604 58.52171898 C-34.4415951 53.17874804 -32.43294541 47.83785418 -30.42104816 42.49816322 C-29.18688063 39.22172482 -27.95551715 35.94429214 -26.73080444 32.66430664 C-25.36389113 29.00357009 -23.98509203 25.34737291 -22.60546875 21.69140625 C-22.19889038 20.59663467 -21.79231201 19.5018631 -21.37341309 18.37391663 C-17.32961803 7.71548201 -13.00751993 -1.9428354 0 0 Z " fill="#FCFEFE" transform="translate(181,45)"/>
<path d="M0 0 C36.8626798 6.92440067 76.6227848 43.16627647 99 72 C99.83036671 73.0510677 100.6611096 74.10183829 101.4921875 75.15234375 C117 94.89438132 117 94.89438132 117 98 C103.82178067 98.06954746 90.64360509 98.12283555 77.46523952 98.15543652 C71.34581959 98.17108429 65.22652534 98.19230666 59.10717773 98.22631836 C53.20034107 98.258943 47.29362521 98.2768597 41.3867054 98.28463173 C39.13448244 98.29016962 36.88226599 98.30098375 34.63009453 98.31719017 C31.4725713 98.33900531 28.3155456 98.34196516 25.15795898 98.34057617 C24.22935059 98.351362 23.30074219 98.36214783 22.34399414 98.3732605 C15.43507876 98.34043019 10.67442799 97.24895081 5.25 92.6875 C0.68399292 87.23365821 -0.439362 82.60427107 -0.34057617 75.60791016 C-0.34101425 74.78773407 -0.34145233 73.96755798 -0.34190369 73.12252808 C-0.33982369 70.42779231 -0.31653024 67.73368877 -0.29296875 65.0390625 C-0.28736998 63.16434062 -0.28310121 61.28961433 -0.28010559 59.41488647 C-0.26867892 54.49273452 -0.23923049 49.57085027 -0.20599365 44.64880371 C-0.17524578 39.62137472 -0.16159018 34.59390227 -0.14648438 29.56640625 C-0.1143587 19.71082021 -0.06318871 9.85543241 0 0 Z " fill="#A6E7F0" transform="translate(348,40)"/>
<path d="M0 0 C-2.65690006 1.77126671 -4.5981646 2.60675317 -7.5625 3.625 C-18.57062735 7.98973854 -26.38890065 16.18845273 -31.31640625 26.84765625 C-35.98715995 39.19992823 -34.41555677 49.83505242 -30 62 C-29.67 62.99 -29.34 63.98 -29 65 C-29.9178125 65.556875 -30.835625 66.11375 -31.78125 66.6875 C-46.5297456 75.78515395 -57.60494985 86.88475188 -62.3828125 104.19921875 C-65.29484763 122.13219459 -62.76866896 139.64250933 -52.25 154.75 C-42.94302509 166.76289169 -30.67535758 174.22633662 -16 178 C-16 178.33 -16 178.66 -16 179 C-33.92778436 179.60734025 -49.74660788 176.10069214 -63.4375 163.75 C-73.97043277 153.79564887 -81.75638399 139.72580464 -82.30078125 125.046875 C-82.3202843 123.2813534 -82.32372131 121.51559366 -82.3125 119.75 C-82.30686035 118.82268066 -82.3012207 117.89536133 -82.29541016 116.93994141 C-81.99404883 99.88169662 -75.58338074 87.22970572 -63.49072266 75.37060547 C-59.63793957 71.82826609 -55.36156015 68.8733251 -51 66 C-49.515 65.01 -49.515 65.01 -48 64 C-48.3609375 63.23558594 -48.721875 62.47117187 -49.09375 61.68359375 C-53.97956037 50.40551481 -54.74971889 40.39095131 -50.9375 28.625 C-46.16342224 16.70997776 -38.01695452 8.41268364 -26.44921875 3.03515625 C-17.71437196 -0.65660515 -9.31349241 -0.20345008 0 0 Z " fill="#D73E25" transform="translate(320,226)"/>
<path d="M0 0 C0.7734375 0.00644531 1.546875 0.01289062 2.34375 0.01953125 C4.5 0.1875 4.5 0.1875 7.5 1.1875 C6.47234467 3.255235 5.43358299 5.31489625 4.36611938 7.36242676 C1.12938721 13.6435778 -1.4762591 20.02921004 -3.9140625 26.65625 C-4.32133575 27.74886642 -4.72860901 28.84148285 -5.14822388 29.96720886 C-6.02288415 32.31533179 -6.8950774 34.66437489 -7.76501465 37.01425171 C-9.14985194 40.75462378 -10.54089725 44.49265056 -11.93457031 48.22973633 C-12.17004074 48.86116326 -12.40551117 49.4925902 -12.64811707 50.14315128 C-13.12654002 51.42598378 -13.60499471 52.70880445 -14.08348083 53.99161339 C-14.80732361 55.93285089 -15.53048918 57.87433961 -16.25354004 59.81587219 C-20.48130884 71.16376071 -24.7699125 82.48810101 -29.08111572 93.80453491 C-30.24631621 96.86532328 -31.4084961 99.92724244 -32.56982422 102.98950195 C-36.09834703 112.288075 -39.64418396 121.57892127 -43.25067139 130.84757996 C-44.87370848 135.02417082 -46.48480768 139.20531243 -48.09436035 143.38711548 C-48.85663561 145.35796379 -49.62466355 147.32659805 -50.39880371 149.29281616 C-51.46268808 151.99582877 -52.50677605 154.70573243 -53.546875 157.41796875 C-54.02181396 158.60187195 -54.02181396 158.60187195 -54.50634766 159.80969238 C-56.3788835 164.76781587 -56.70202111 168.00431983 -55.5 173.1875 C-57.79141286 173.24134521 -60.08318188 173.28022087 -62.375 173.3125 C-63.65117188 173.33570313 -64.92734375 173.35890625 -66.2421875 173.3828125 C-69.5 173.1875 -69.5 173.1875 -71.5 171.1875 C-72.06126234 165.43207555 -70.72235401 161.17726581 -68.6484375 155.9375 C-68.35192291 155.16172607 -68.05540833 154.38595215 -67.74990845 153.58666992 C-66.80244737 151.11594269 -65.83896576 148.65182791 -64.875 146.1875 C-64.25025641 144.56420413 -63.62654972 142.94050881 -63.00390625 141.31640625 C-60.19861149 134.02083204 -57.3342377 126.75028726 -54.4140625 119.5 C-51.57325575 112.42812368 -48.88677845 105.30536372 -46.23382568 98.16156006 C-45.05373265 94.98699888 -43.86443237 91.81589565 -42.67578125 88.64453125 C-42.20554755 87.38892308 -41.73533286 86.13330778 -41.26513672 84.87768555 C-36.38378019 71.84639622 -31.48383046 58.82277139 -26.51831055 45.82324219 C-24.20974971 39.76363626 -21.94940074 33.6913416 -19.765625 27.5859375 C-19.3217041 26.35464111 -18.8777832 25.12334473 -18.42041016 23.85473633 C-17.58132859 21.51982503 -16.75221942 19.18129606 -15.93505859 16.83862305 C-13.11867236 9.02726124 -9.70697612 -0.17796123 0 0 Z " fill="#0299B1" transform="translate(161.5,44.8125)"/>
<path d="M0 0 C0.66 0 1.32 0 2 0 C4.71285979 7.06318 7.41797779 14.12928866 10.11767578 21.19750977 C11.03743368 23.602818 11.95897668 26.00744442 12.88232422 28.41137695 C14.20747734 31.8623262 15.52623901 35.31565837 16.84375 38.76953125 C17.46715271 40.38683891 17.46715271 40.38683891 18.10314941 42.03681946 C18.4835437 43.03763046 18.86393799 44.03844147 19.25585938 45.06958008 C19.76215881 46.39195427 19.76215881 46.39195427 20.27868652 47.74104309 C21 50 21 50 21 53 C7.8 53 -5.4 53 -19 53 C-18.10818271 48.54091354 -16.82806787 44.53993387 -15.234375 40.3125 C-14.95909973 39.57354492 -14.68382446 38.83458984 -14.40020752 38.07324219 C-13.52033193 35.71415996 -12.63517891 33.3570967 -11.75 31 C-11.17024099 29.44673844 -10.59081089 27.89335406 -10.01171875 26.33984375 C-6.72664603 17.53959365 -3.39304772 8.75924748 0 0 Z " fill="#059BB2" transform="translate(176,98)"/>
<path d="M0 0 C2.62704421 3.94056632 4.18890022 8.112517 5.9375 12.5 C6.29650391 13.39750977 6.65550781 14.29501953 7.02539062 15.21972656 C9.46053641 21.40142233 11.47636613 27.52455606 13 34 C17.62 34 22.24 34 27 34 C27.495 33.01 27.495 33.01 28 32 C28 32.99 28 33.98 28 35 C14.8 35 1.6 35 -12 35 C-11.13932427 30.69662134 -10.01222071 27.04450421 -8.49609375 22.94921875 C-8.2533522 22.29041214 -8.01061066 21.63160553 -7.76051331 20.95283508 C-6.98963528 18.86309241 -6.21365204 16.77528883 -5.4375 14.6875 C-4.91177031 13.26509923 -4.38637609 11.84257443 -3.86132812 10.41992188 C-2.57809843 6.94517045 -1.29028535 3.47213854 0 0 Z " fill="#0ABED6" transform="translate(169,116)"/>
<path d="M0 0 C4.95 0 9.9 0 15 0 C19.06196551 9.35482966 19.06196551 9.35482966 18.80078125 12.07421875 C17.84886033 14.36347247 16.64299465 16.10270093 15.125 18.0625 C14.61195313 18.73410156 14.09890625 19.40570313 13.5703125 20.09765625 C12.12857257 21.84424169 10.61151766 23.41233797 9 25 C7.4973608 21.02182489 5.99833048 17.04229973 4.5 13.0625 C4.07074219 11.92619141 3.64148438 10.78988281 3.19921875 9.61914062 C2.79316406 8.53955078 2.38710937 7.45996094 1.96875 6.34765625 C1.59169922 5.34742432 1.21464844 4.34719238 0.82617188 3.31665039 C0 1 0 1 0 0 Z " fill="#049AB1" transform="translate(193,178)"/>
</svg>
